<svg width="385" height="512" viewBox="0 0 385 512" fill="none" xmlns="http://www.w3.org/2000/svg">
<path d="M330.676 512H117.343C111.455 512 106.676 507.221 106.676 501.333V437.333C106.676 419.691 92.3189 405.333 74.6762 405.333H10.6762C4.78819 405.333 0.00952148 400.555 0.00952148 394.667V53.3333C0.00952148 23.936 23.9455 0 53.3429 0H330.676C360.074 0 384.01 23.936 384.01 53.3333V458.667C384.01 488.064 360.074 512 330.676 512ZM128.01 490.667H330.676C348.319 490.667 362.676 476.309 362.676 458.667V53.3333C362.676 35.6907 348.319 21.3333 330.676 21.3333H53.3429C35.7002 21.3333 21.3429 35.6907 21.3429 53.3333V384H74.6762C104.074 384 128.01 407.936 128.01 437.333V490.667Z" fill="#000D1A"/>
<path d="M117.343 512C114.569 512 111.839 510.912 109.791 508.885L3.12416 402.219C0.073494 399.168 -0.843835 394.581 0.820165 390.592C2.46283 386.603 6.36683 384 10.6762 384H74.6762C104.074 384 128.009 407.936 128.009 437.333V501.333C128.009 505.643 125.407 509.547 121.417 511.189C120.095 511.744 118.708 512 117.343 512ZM36.4255 405.333L106.676 475.584V437.333C106.676 419.691 92.3188 405.333 74.6762 405.333H36.4255Z" fill="#000D1A"/>
<path d="M288.01 149.333H96.0095C78.3669 149.333 64.0095 134.976 64.0095 117.333V96C64.0095 78.3573 78.3669 64 96.0095 64H288.01C305.652 64 320.01 78.3573 320.01 96V117.333C320.01 134.976 305.652 149.333 288.01 149.333ZM96.0095 85.3333C90.1215 85.3333 85.3429 90.112 85.3429 96V117.333C85.3429 123.221 90.1215 128 96.0095 128H288.01C293.898 128 298.676 123.221 298.676 117.333V96C298.676 90.112 293.898 85.3333 288.01 85.3333H96.0095Z" fill="#000D1A"/>
<path d="M176.55 304.05H134.85L127.95 324H105.9L143.55 219.15H168L205.65 324H183.45L176.55 304.05ZM170.85 287.25L155.7 243.45L140.55 287.25H170.85ZM215.973 259.56C216.373 251.56 219.173 245.4 224.373 241.08C229.653 236.68 236.573 234.48 245.133 234.48C250.973 234.48 255.973 235.52 260.133 237.6C264.293 239.6 267.413 242.36 269.493 245.88C271.653 249.32 272.733 253.24 272.733 257.64C272.733 262.68 271.413 266.96 268.773 270.48C266.213 273.92 263.133 276.24 259.533 277.44V277.92C264.173 279.36 267.773 281.92 270.333 285.6C272.973 289.28 274.293 294 274.293 299.76C274.293 304.56 273.173 308.84 270.933 312.6C268.773 316.36 265.533 319.32 261.213 321.48C256.973 323.56 251.853 324.6 245.853 324.6C236.813 324.6 229.453 322.32 223.773 317.76C218.093 313.2 215.093 306.48 214.773 297.6H231.093C231.253 301.52 232.573 304.68 235.053 307.08C237.613 309.4 241.093 310.56 245.493 310.56C249.573 310.56 252.693 309.44 254.853 307.2C257.093 304.88 258.213 301.92 258.213 298.32C258.213 293.52 256.693 290.08 253.653 288C250.613 285.92 245.893 284.88 239.493 284.88H236.013V271.08H239.493C250.853 271.08 256.533 267.28 256.533 259.68C256.533 256.24 255.493 253.56 253.413 251.64C251.413 249.72 248.493 248.76 244.653 248.76C240.893 248.76 237.973 249.8 235.893 251.88C233.893 253.88 232.733 256.44 232.413 259.56H215.973Z" fill="#000D1A"/>
</svg>
