<svg width="385" height="512" viewBox="0 0 385 512" fill="none" xmlns="http://www.w3.org/2000/svg">
<path d="M330.676 512H117.343C111.455 512 106.676 507.221 106.676 501.333V437.333C106.676 419.691 92.3189 405.333 74.6762 405.333H10.6762C4.78819 405.333 0.00952148 400.555 0.00952148 394.667V53.3333C0.00952148 23.936 23.9455 0 53.3429 0H330.676C360.074 0 384.01 23.936 384.01 53.3333V458.667C384.01 488.064 360.074 512 330.676 512ZM128.01 490.667H330.676C348.319 490.667 362.676 476.309 362.676 458.667V53.3333C362.676 35.6907 348.319 21.3333 330.676 21.3333H53.3429C35.7002 21.3333 21.3429 35.6907 21.3429 53.3333V384H74.6762C104.074 384 128.01 407.936 128.01 437.333V490.667Z" fill="#000D1A"/>
<path d="M117.343 512C114.569 512 111.839 510.912 109.791 508.885L3.12416 402.219C0.073494 399.168 -0.843835 394.581 0.820165 390.592C2.46283 386.603 6.36683 384 10.6762 384H74.6762C104.074 384 128.009 407.936 128.009 437.333V501.333C128.009 505.643 125.407 509.547 121.417 511.189C120.095 511.744 118.708 512 117.343 512ZM36.4255 405.333L106.676 475.584V437.333C106.676 419.691 92.3188 405.333 74.6762 405.333H36.4255Z" fill="#000D1A"/>
<path d="M288.01 149.333H96.0095C78.3669 149.333 64.0095 134.976 64.0095 117.333V96C64.0095 78.3573 78.3669 64 96.0095 64H288.01C305.652 64 320.01 78.3573 320.01 96V117.333C320.01 134.976 305.652 149.333 288.01 149.333ZM96.0095 85.3333C90.1215 85.3333 85.3429 90.112 85.3429 96V117.333C85.3429 123.221 90.1215 128 96.0095 128H288.01C293.898 128 298.676 123.221 298.676 117.333V96C298.676 90.112 293.898 85.3333 288.01 85.3333H96.0095Z" fill="#000D1A"/>
<path d="M176.55 304.05H134.85L127.95 324H105.9L143.55 219.15H168L205.65 324H183.45L176.55 304.05ZM170.85 287.25L155.7 243.45L140.55 287.25H170.85ZM215.013 306.96V293.76L254.253 237.6H273.813V292.32H284.373V306.96H273.813V324H257.013V306.96H215.013ZM258.093 255.6L233.493 292.32H258.093V255.6Z" fill="#000D1A"/>
</svg>
