<svg width="385" height="512" viewBox="0 0 385 512" fill="none" xmlns="http://www.w3.org/2000/svg">
<path d="M330.676 512H117.343C111.455 512 106.676 507.221 106.676 501.333V437.333C106.676 419.691 92.3188 405.333 74.6762 405.333H10.6762C4.78816 405.333 0.00949097 400.555 0.00949097 394.667V53.3333C0.00949097 23.936 23.9455 0 53.3428 0H330.676C360.074 0 384.009 23.936 384.009 53.3333V458.667C384.009 488.064 360.074 512 330.676 512ZM128.009 490.667H330.676C348.319 490.667 362.676 476.309 362.676 458.667V53.3333C362.676 35.6907 348.319 21.3333 330.676 21.3333H53.3428C35.7002 21.3333 21.3428 35.6907 21.3428 53.3333V384H74.6762C104.073 384 128.009 407.936 128.009 437.333V490.667Z" fill="#000D1A"/>
<path d="M117.343 512C114.569 512 111.839 510.912 109.791 508.885L3.12416 402.219C0.073494 399.168 -0.843835 394.581 0.820165 390.592C2.46283 386.603 6.36683 384 10.6762 384H74.6762C104.074 384 128.009 407.936 128.009 437.333V501.333C128.009 505.643 125.407 509.547 121.417 511.189C120.095 511.744 118.708 512 117.343 512ZM36.4255 405.333L106.676 475.584V437.333C106.676 419.691 92.3188 405.333 74.6762 405.333H36.4255Z" fill="#000D1A"/>
<path d="M288.009 149.333H96.0095C78.3668 149.333 64.0095 134.976 64.0095 117.333V96C64.0095 78.3573 78.3668 64 96.0095 64H288.009C305.652 64 320.009 78.3573 320.009 96V117.333C320.009 134.976 305.652 149.333 288.009 149.333ZM96.0095 85.3333C90.1215 85.3333 85.3428 90.112 85.3428 96V117.333C85.3428 123.221 90.1215 128 96.0095 128H288.009C293.897 128 298.676 123.221 298.676 117.333V96C298.676 90.112 293.897 85.3333 288.009 85.3333H96.0095Z" fill="#000D1A"/>
<path d="M176.55 304.05H134.85L127.95 324H105.9L143.55 219.15H168L205.65 324H183.45L176.55 304.05ZM170.85 287.25L155.7 243.45L140.55 287.25H170.85ZM274.533 251.04H235.653V271.56C237.333 269.48 239.733 267.8 242.853 266.52C245.973 265.16 249.293 264.48 252.813 264.48C259.213 264.48 264.453 265.88 268.533 268.68C272.613 271.48 275.573 275.08 277.413 279.48C279.253 283.8 280.173 288.44 280.173 293.4C280.173 302.6 277.533 310 272.253 315.6C267.053 321.2 259.613 324 249.933 324C240.813 324 233.533 321.72 228.093 317.16C222.653 312.6 219.573 306.64 218.853 299.28H235.173C235.893 302.48 237.493 305.04 239.973 306.96C242.533 308.88 245.773 309.84 249.693 309.84C254.413 309.84 257.973 308.36 260.373 305.4C262.773 302.44 263.973 298.52 263.973 293.64C263.973 288.68 262.733 284.92 260.253 282.36C257.853 279.72 254.293 278.4 249.573 278.4C246.213 278.4 243.413 279.24 241.173 280.92C238.933 282.6 237.333 284.84 236.373 287.64H220.293V236.28H274.533V251.04Z" fill="#000D1A"/>
</svg>
