<?xml version="1.0" encoding="utf-8"?>
<!-- Generator: Adobe Illustrator 24.1.2, SVG Export Plug-In . SVG Version: 6.00 Build 0)  -->
<svg version="1.1" id="Layer_1" xmlns="http://www.w3.org/2000/svg" xmlns:xlink="http://www.w3.org/1999/xlink" x="0px" y="0px"
	 viewBox="0 0 792 360" style="enable-background:new 0 0 792 360;" xml:space="preserve">
<style type="text/css">
	.st0{fill:#5E311A;}
	.st1{font-family:'Bonita';}
	.st2{font-size:77.2924px;}
	.st3{fill:#FBD3BF;}
	.st4{fill:#F2AF92;}
	.st5{fill:#FFFFFF;}
	.st6{fill:#F9B55F;}
</style>
<g>
	<g>
		<g>
			<g>
				<text transform="matrix(1 0 0 1 183.2798 274.54)" class="st0 st1 st2">Pencil Memories</text>
			</g>
		</g>
	</g>
	<g>
		<g>
			<g>
				<path class="st3" d="M440.15,124.86c5.45-10.63-4.91-23.39-13.54-10.42c-2.69,4.04,0.57-1.11,0.57-1.11s4.51-8.4,10.58-22.19
					c5.66-12.84-8.53-15.58-13.51-10.93c0.35-1.14,0.76-2.19,1.24-3.12c5-9.76-11.08-20.86-19.27-4.87c0,0-5.58,11.49-1.36,2.65
					c6.87-14.37-6.69-22.81-15.73-9.06c-8.64,13.14-22.07,35.13-23.24,37.05c0.02-0.37,0.11-0.75,0.26-1.12
					c4.66-11.03-4.89-25.37-12.69-16.94c-7.8,8.43-13.98,20.67-19.83,32.08c-5.85,11.41-15.94,31.09-9.77,47.17
					c6.17,16.08,34.72,33.1,55.64,37.86c20.92,4.76,32.01-20.76,37.84-30.19C423.17,162.28,436.32,132.35,440.15,124.86z
					 M365.88,103.2l1.04,2.6C366.28,104.93,365.91,104.06,365.88,103.2z"/>
			</g>
			<g>
				<path class="st4" d="M438.75,112.4c0,0-6.13,2.21-13.52,16.62c-7.39,14.41-6.91,23.22-6.91,23.22l-10.31-5.64
					c0,0,10.86-21.2,17.35-30.36C431.84,107.07,436.95,108.26,438.75,112.4z"/>
			</g>
			<g>
				<path class="st4" d="M435.94,80.98c0,0-7.01,4.62-18.15,25.67c-11.15,21.05-15.69,34.78-15.69,34.78l-8.33-4.63
					c0,0,22.16-43.24,28.36-51.84C428.32,76.36,430.88,75.53,435.94,80.98z"/>
			</g>
			<g>
				<path class="st4" d="M423.29,68.07c0,0-7.09-0.78-19.7,23.81c-12.6,24.59-16.18,41.31-16.18,41.31l-10.76-3.37
					c0,0,26.11-54.42,31.86-60.75C414.25,62.72,421.05,64.07,423.29,68.07z"/>
			</g>
			<g>
				<path class="st4" d="M403.89,62.05c0,0-4.24-2.17-10.46,9.27c-6.22,11.44-27.03,46.46-25.94,51.3c1.09,4.84,3.35,6,3.35,6
					s-5.38-1.33-8.54,1.33c-3.15,2.67-6.89,7.18-6.89,7.18l-3.66-5c0,0,23.33-44.52,32.27-57.78
					C392.96,61.09,399.28,54.33,403.89,62.05z"/>
			</g>
			<g>
				<path class="st4" d="M359.5,83.91c0,0-25.28,42.36-21.1,64.84c4.18,22.48,26.58,40.03,37.04,45.39
					c10.46,5.36,18.41,5.87,18.41,5.87s-17.56,9.2-52.83-15.3c-35.26-24.5-11.47-60.48-3.38-74.18
					C345.73,96.83,353,80.57,359.5,83.91z"/>
			</g>
			<g>
				<path class="st0" d="M384.65,203.78c-1.74,0-3.55-0.2-5.44-0.63c-21.58-4.91-50.34-22.48-56.54-38.64
					c-6.37-16.61,3.77-36.39,9.82-48.21l0.45-0.88c5.83-11.38,11.86-23.14,19.57-31.48c2.99-3.23,6.61-3.85,9.93-1.7
					c4.95,3.19,8.16,12.19,4.86,20c-4.08,9.65-12.1,25.82-14.01,29.64c1.46,1.5,4.93,5.45,8.02,11.77
					c4.02,8.25,0.8,23.34,0.66,23.98c-0.15,0.69-0.83,1.12-1.51,0.97c-0.69-0.15-1.12-0.83-0.97-1.51
					c0.03-0.15,3.18-14.86-0.46-22.32c-3.73-7.64-8.09-11.64-8.13-11.68c-0.42-0.38-0.54-1-0.28-1.51
					c0.1-0.19,9.76-19.46,14.35-30.32c2.73-6.46,0.19-14.24-3.9-16.88c-2.25-1.45-4.56-1-6.69,1.29
					c-7.48,8.08-13.43,19.69-19.18,30.91l-0.45,0.88c-5.86,11.44-15.68,30.59-9.71,46.14c5.92,15.44,33.78,32.31,54.73,37.07
					c17.39,3.95,27.79-14.41,34.01-25.38c0.93-1.63,1.72-3.04,2.47-4.24c3.84-6.22,11.1-21.87,16.4-33.3
					c2.72-5.87,5.07-10.93,6.36-13.46c2.79-5.45,1.01-11.44-2.34-13.41c-2.82-1.65-6.11-0.1-9.01,4.27
					c-8.49,12.74-17.53,31.49-17.62,31.68c-0.3,0.63-1.06,0.9-1.7,0.59c-0.63-0.3-0.9-1.06-0.59-1.7c0.09-0.19,9.21-19.1,17.8-31.99
					c5.48-8.23,10.89-5.95,12.41-5.05c4.42,2.59,6.81,9.95,3.32,16.76c-1.27,2.48-3.61,7.52-6.32,13.37
					c-5.62,12.13-12.62,27.22-16.55,33.57c-0.72,1.16-1.5,2.55-2.42,4.16C410.08,186.98,400.56,203.78,384.65,203.78z"/>
			</g>
			<g>
				<path class="st0" d="M376.16,130.18c-0.21,0-0.42-0.05-0.61-0.16c-0.61-0.34-0.84-1.11-0.5-1.73
					c0.22-0.4,21.89-39.81,28.66-53.98c3.27-6.84,1.5-11.8-1.52-13.51c-3-1.69-7.87-0.59-12,5.69
					c-8.92,13.58-23.16,36.91-23.31,37.15c-0.37,0.6-1.15,0.79-1.75,0.42c-0.6-0.37-0.79-1.15-0.42-1.75
					c0.14-0.23,14.4-23.6,23.35-37.22c5.03-7.65,11.34-8.78,15.37-6.51c4.02,2.27,6.54,8.5,2.57,16.81
					c-6.81,14.24-28.51,53.71-28.73,54.11C377.04,129.94,376.61,130.18,376.16,130.18z"/>
			</g>
			<g>
				<path class="st0" d="M394.48,137.09c-0.2,0-0.41-0.05-0.6-0.15c-0.62-0.33-0.85-1.1-0.52-1.72
					c0.21-0.39,20.79-38.82,30.99-58.71c2.1-4.1-0.23-8.39-3.7-10.17c-3.65-1.87-9.33-1.31-13.31,6.46
					c-0.32,0.62-1.08,0.87-1.71,0.55c-0.62-0.32-0.87-1.09-0.55-1.71c4.52-8.83,11.66-10.16,16.73-7.56
					c4.58,2.35,7.63,8.07,4.8,13.59c-10.21,19.91-30.8,58.37-31.01,58.75C395.37,136.85,394.94,137.09,394.48,137.09z"/>
			</g>
			<g>
				<path class="st0" d="M427.18,114.6c-0.2,0-0.41-0.05-0.6-0.15c-0.62-0.33-0.85-1.1-0.52-1.72c0.04-0.08,4.56-8.53,10.54-22.1
					c2.14-4.85,1.42-8.51-2.02-10.3c-3.51-1.83-8.56-1-10.19,1.68c-0.36,0.6-1.15,0.79-1.75,0.42c-0.6-0.37-0.79-1.15-0.42-1.75
					c2.34-3.84,8.79-5.08,13.54-2.6c4.66,2.43,5.84,7.51,3.17,13.58c-6.02,13.67-10.58,22.19-10.62,22.28
					C428.07,114.36,427.63,114.6,427.18,114.6z"/>
			</g>
		</g>
		<g>
			<g>
				<path class="st5" d="M468.29,180.37l-30.23-31.3c0,0,0.46-19.14-6.67-38.67c-2.57-7.03-0.38-13.17-2.71-19.23
					c-3.94-10.24-14.77-6.09-14.77-6.09s-2.16-6.6-9.9-8.1c-9.46-1.83-17.99,9.11-12.71,17.26c0,0-4.53-1.72-13.08,1.74
					c-7.63,3.09-8.11,13.91-4.92,18.28c0,0-17.23,1.68-11.98,21.68c5.25,20,29.1,27.03,29.1,27.03l40.54,52.36
					C442.72,205.41,455.78,193.53,468.29,180.37z"/>
			</g>
			<g>
				<path class="st6" d="M468.29,180.37l-30.23-31.3c0,0-11.26-35.43-31.93-23.95c-11.99,6.66-13.65,24.32-14.71,39.14l39.54,51.07
					C442.72,205.41,455.78,193.53,468.29,180.37z"/>
			</g>
			<g>
				<path class="st0" d="M416.17,97.16c-1.46,0-2.76-1-3.01-2.42c-0.76-4.14-2.17-8.8-2.19-8.85c-0.47-1.55,0.46-3.17,2.08-3.62
					c1.63-0.45,3.32,0.44,3.8,1.98c0.06,0.2,1.53,5.01,2.34,9.48c0.29,1.59-0.83,3.1-2.49,3.37
					C416.53,97.15,416.35,97.16,416.17,97.16z"/>
			</g>
			<g>
				<path class="st0" d="M397.33,105.6c-1.37,0-2.62-0.89-2.97-2.21c-1.15-4.39-4.69-6.68-4.73-6.7c-1.42-0.87-1.83-2.67-0.91-4.02
					c0.91-1.36,2.82-1.74,4.24-0.87c0.23,0.14,5.6,3.49,7.35,10.19c0.41,1.56-0.59,3.15-2.23,3.53
					C397.83,105.57,397.58,105.6,397.33,105.6z"/>
			</g>
			<g>
				<path class="st0" d="M381.68,124.33c-1.69,0-3.06-1.31-3.06-2.92c0-1.69-3.99-3.71-6.22-4.36c-1.62-0.47-2.52-2.11-2.02-3.65
					c0.5-1.54,2.21-2.4,3.83-1.93c1.08,0.32,10.54,3.29,10.54,9.94C384.74,123.02,383.37,124.33,381.68,124.33z"/>
			</g>
			<g>
				<path class="st0" d="M430.96,218.26c-0.11,0-0.21-0.01-0.32-0.02c-0.86-0.09-1.63-0.51-2.14-1.17l-39.97-51.63
					c-4.81-1.63-25.14-9.6-30.18-28.79c-1.98-7.53-1.26-13.68,2.12-18.28c2.5-3.39,5.93-5.16,8.57-6.08
					c-0.91-3.05-0.91-6.71,0.1-10.05c1.29-4.24,4.09-7.42,7.88-8.95c4.01-1.62,7.29-2.22,9.78-2.36c-0.6-3.54,0.31-7.31,2.71-10.58
					c3.56-4.87,9.49-7.31,15.11-6.22c6.1,1.18,9.38,4.93,10.96,7.51c2.28-0.41,5.63-0.59,8.85,0.77c3.28,1.39,5.68,4,7.13,7.76
					c1.31,3.41,1.38,6.74,1.44,9.97c0.06,3.16,0.12,6.14,1.28,9.3c6.3,17.23,6.83,33.93,6.85,38.5l29.42,30.45
					c1.07,1.11,1.08,2.81,0.02,3.93c-11.12,11.69-23.76,23.53-37.57,35.2C432.43,218,431.7,218.26,430.96,218.26z M388,96.74
					c-1.81,0-4.69,0.35-8.58,1.93c-2.64,1.07-3.85,3.42-4.39,5.2c-1.03,3.38-0.41,7.1,0.78,8.73c0.62,0.85,0.72,1.94,0.26,2.88
					c-0.45,0.94-1.39,1.58-2.47,1.68c-0.03,0-5.26,0.62-8.16,4.61c-2.29,3.15-2.68,7.68-1.16,13.46
					c4.76,18.13,26.82,24.89,27.04,24.95c0.62,0.19,1.17,0.56,1.56,1.05l38.54,49.79c11.9-10.18,22.89-20.47,32.71-30.65
					l-28.33-29.33c-0.54-0.56-0.83-1.29-0.81-2.04c0-0.19,0.36-18.88-6.5-37.65c-1.48-4.04-1.55-7.79-1.62-11.11
					c-0.06-2.99-0.11-5.58-1.07-8.07c-0.86-2.23-2.11-3.68-3.83-4.42c-3.12-1.34-6.89,0.03-6.93,0.04
					c-0.79,0.29-1.68,0.26-2.45-0.09c-0.77-0.35-1.35-0.98-1.6-1.76c-0.06-0.18-1.8-4.99-7.58-6.11c-3.23-0.62-6.71,0.89-8.87,3.84
					c-2.15,2.94-2.38,6.31-0.62,9.02c0.71,1.09,0.66,2.53-0.24,3.49c-0.89,0.95-2.25,1.28-3.47,0.76
					C390.04,96.92,389.3,96.74,388,96.74z M390.17,96.95C390.17,96.95,390.17,96.95,390.17,96.95S390.17,96.95,390.17,96.95z"/>
			</g>
		</g>
	</g>
</g>
</svg>
